<?xml version="1.0" encoding="utf-8"?>
<!-- Generator: Adobe Illustrator 24.0.2, SVG Export Plug-In . SVG Version: 6.00 Build 0)  -->
<svg version="1.1" id="Capa_1" xmlns="http://www.w3.org/2000/svg" xmlns:xlink="http://www.w3.org/1999/xlink" x="0px" y="0px"
	 viewBox="0 0 1200 1200" enable-background="new 0 0 1200 1200" xml:space="preserve" class="svgShrimp">
<g>
	<path fill="#E57841" d="M793.337,208.039c21.915,3.339,59.934,47.4,76.766,62.07c50.004,43.583,96.445,91.85,133.025,147.409
		c19.556,29.704,36.156,61.232,52.72,92.702c15.219,28.914,30.439,57.828,45.658,86.742c14.572,27.684,29.278,55.716,36.725,86.102
		c8.446,34.461,7.199,70.495,4.847,105.898c-1.243,18.715-7.446,42.516-26.107,44.396c4.045-29.782-30.98-49.106-42.769-76.753
		c-9.989-23.426-2.613-52.22-15.351-74.273c-6.25-10.82-16.57-18.532-25.6-27.168c-16.148-15.444-28.534-34.318-40.772-53.012
		c-28.602-43.692-57.205-87.384-85.807-131.076c-39.651-60.569-79.602-121.717-105.587-189.286
		C794.25,264.015,763.675,203.52,793.337,208.039z M777.029,405.995c-11.187-11.589-23.47-22.588-38.232-29.033
		c-14.61-6.378-30.795-7.938-46.667-9.419c-32.648-3.047-65.296-6.094-97.944-9.142c-7.707-0.719-17.152-0.606-21.063,6.074
		c-5.987,10.225,7.538,20.584,18.609,24.807c30.764,11.736,61.528,23.472,92.293,35.208c3.069,1.171,6.277,2.438,8.388,4.955
		c7.383,8.803-4.27,20.692-14.253,26.377c-35.914,20.453-72.849,49.095-78.753,90.001c25.913-3.893,42.257-28.757,60.921-47.151
		c18.663-18.394,52.735-30.076,68.67-9.274c-18.19,12.53-33.877,28.678-45.875,47.223c17.376,10.541,38.319-9.626,58.606-8.41
		c8.534,0.511,16.334,4.849,23.51,9.496c37.983,24.6,68.02,61.268,84.661,103.351c-34.112-35.065-86.433-43.498-134.91-50.069
		c-4.966-0.673-10.327-1.28-14.725,1.123c-4.83,2.638-7.183,8.164-9.185,13.29c-8.755,22.413-17.359,44.886-25.812,67.415
		c6.183,5.341,15.849-0.007,20.844-6.472c4.996-6.465,9.286-14.731,17.228-16.652c10.914-2.64,20.438,9.187,21.689,20.346
		c1.251,11.158-2.449,22.339-1.985,33.557c0.464,11.219,7.801,23.925,19.025,23.63c4.709-20.132,9.418-40.263,14.127-60.395
		c1.473-6.295,3.47-13.313,9.136-16.426c8.515-4.68,18.375,2.393,26.403,7.868c16.141,11.008,35.875,16.653,55.395,15.845
		c20.135-0.833,65.898,59.574,71.236,71.186c4.448,9.678,10.88,19.299,20.781,23.224s23.563-0.667,25.779-11.085
		c0.838-3.941-0.01-8.023-0.856-11.963c-5.342-24.866-10.685-49.732-16.027-74.598c-3.693-17.189-8.168-35.714-21.706-46.931
		c-10.935-9.061-26.498-12.078-35.55-23.02c-19.679-23.788-7.233-5.942-42.061-80.351
		C817.184,484.078,813.619,443.897,777.029,405.995z M1078.931,880.748c-7.971,10.246-8.525,24.169-11.055,36.901
		c-7.695,38.725-38.104,72.052-75.964,83.253c-24.799,7.337-54.282,7-71.673,26.14c-6.192,6.815-10.019,15.394-13.745,23.814
		c-4.865,10.996-9.73,21.991-14.594,32.987c-0.773,1.746-1.552,3.747-0.797,5.501c0.53,1.231,1.708,2.044,2.864,2.721
		c14.862,8.703,34.195,5.308,49.29-2.985c15.095-8.293,27.334-20.83,40.937-31.393c17.763-13.793,37.931-24.265,55.568-38.219
		c27.397-21.676,47.76-51.857,58.417-85.065c3.605-11.234,13.235-37.86,9.486-49.455
		C1103.581,872.318,1091.04,865.183,1078.931,880.748z"/>
	<path fill="#12100B" d="M904.384,411.563c-3.189,7.29-9.614,11.24-17.808,11.24c-2.226,0-4.578-0.291-7.036-0.885
		c-8.167-1.977-15.166-9.114-17.831-18.185c-2.313-7.872-0.737-15.672,4.215-20.864c13.574-14.231,24.62-9.387,28.735-6.648
		C904.868,383.011,909.504,399.857,904.384,411.563z M864.616,363.454c-1.297-2.015-3.363-3.406-5.82-3.915
		c-2.652-0.555-5.42-0.013-7.622,1.462c-3.142,2.108-5.065,5.9-5.147,10.146c-0.061,3.197,0.881,6.116,1.571,8.249
		c0.737,2.283,2.852,3.735,5.128,3.735c0.547,0,1.105-0.084,1.655-0.262c2.831-0.914,4.386-3.951,3.473-6.783
		c-0.61-1.892-1.076-3.44-1.05-4.733c0.003-0.246,0.032-0.464,0.071-0.651c1.75,1.295,4.186,1.444,6.12,0.201
		C865.5,369.292,866.224,365.957,864.616,363.454z M1146.896,818.943c-7.107,32.453-24.167,60.895-40.667,88.401l-61.429,102.431
		c-4.712,7.857-10.051,16.76-17.613,23.612c-6.204,5.625-13.44,9.517-20.439,13.282c-1.955,1.052-3.907,2.102-5.833,3.189
		c-10.606,5.988-20.754,13.374-30.566,20.518c-8.046,5.857-16.368,11.914-25.043,17.295c-20.191,12.524-39.257,18.836-56.835,18.836
		c-3.594,0-7.128-0.263-10.596-0.792c-2.389-0.366-4.244-2.279-4.536-4.678c-0.533-4.382-0.03-8.9,1.246-13.162
		c-1.116-0.161-2.231-0.432-3.301-0.957c-3.778-1.852-5.912-5.339-7.188-7.799c-4.105-7.92-4.702-15.679-1.679-21.846
		c3.405-6.938,10.664-10.348,15.469-12.603l8.679-4.077c-0.573-0.827-1.204-1.668-1.864-2.532c-2.718-3.557-5.796-7.591-6.01-13.137
		c-0.326-8.388,6.481-14.89,13.366-17.613c3.423-1.35,6.852-2.021,10.169-2.665c2.355-0.46,4.578-0.895,6.654-1.544
		c5.667-1.771,10.764-5.299,16.16-9.033c3.239-2.242,6.588-4.56,10.177-6.559c5.846-3.256,12.895-5.35,19.645-5.265l0.309-10.648
		c0.063-2.147,1.392-4.049,3.384-4.847c13.958-5.586,30.732-2.613,42.24,6.894c7.722-12.445,9.404-29.414,11.038-45.885
		c0.305-3.084,0.608-6.125,0.945-9.088c-17.25-3.039-34.213-9.504-49.113-18.718c-1.06-0.656-1.824-1.659-2.228-2.807
		c-13.915-3.458-26.486-10.136-38.66-16.651c-10.046-5.375-20.433-10.935-30.3-17.21c-16.155-10.277-31.705-22.88-47.542-38.531
		c-1.863-1.842-2.131-4.757-0.637-6.907c1.495-2.152,4.315-2.918,6.694-1.815l56.693,26.304
		c12.508,5.804,25.443,11.809,38.933,14.34c14.053,2.641,27.056,0.874,36.799-4.896c-2.152-4.329-3.582-8.852-4.274-13.396
		c-24.426-2.52-50.156-11.175-76.526-25.777c-23.083-12.787-43.448-27.943-67.67-46.429c-2.06-1.571-2.71-4.386-1.547-6.702
		c1.16-2.315,3.805-3.481,6.296-2.763c16.432,4.697,31.724,12.464,46.511,19.976c7.857,3.991,15.984,8.12,24.096,11.682
		c26.456,11.61,49.176,14.42,67.637,8.402L967.7,780.876c-0.396-0.615-0.799-1.242-1.204-1.876
		c-0.718,0.347-1.485,0.595-2.308,0.595c-0.453,0-0.913-0.058-1.371-0.179c-21.612-5.675-36.491-14.403-45.487-26.685
		c-2.818-3.847-4.994-7.959-7.099-11.935c-1.068-2.018-2.134-4.039-3.284-6.007c-3.405-5.825-7.662-11.367-11.777-16.729
		l-26.759-34.86c-0.175-0.228-0.31-0.472-0.443-0.717c-6.488,0.115-13.119-0.002-19.756-1.378
		c-6.449-1.334-12.485-3.784-18.118-6.178c-26.304-11.198-51.781-24.722-75.809-40.241c-0.637,2.389-0.776,5.275-0.847,8.27
		c-0.629,26.398-0.842,53.199-0.631,79.661c0.168,21.52,0.676,40.875,5.207,59.838c0.339,1.423,0.087,2.926-0.703,4.157
		c-0.789,1.234-2.047,2.092-3.481,2.379c-0.595,0.118-1.237,0.192-1.915,0.192c-3.168,0-7.151-1.602-10.782-7.749
		c-13.221-22.367-15.997-60.522-18.226-91.18c-0.716-9.825-1.389-19.102-2.326-26.596l-0.334-2.644
		c-1.384-10.924-2.95-23.307-1.379-34.489c0.098-0.695,0.234-1.328,0.351-1.992c-0.875-0.23-1.721-0.478-2.513-0.713
		c-2.807-0.831-4.997-1.418-5.512-0.818c-23.867,27.445-43.648,58.133-58.796,91.209c-5.249,11.467-10.714,20.673-20.318,28.337
		c-0.981,0.784-2.171,1.176-3.36,1.176s-2.381-0.392-3.365-1.179c-1.966-1.571-2.581-4.294-1.484-6.56l59.335-122.443
		c2.426-5.01,6.094-12.58,13.298-16.137c4.37-2.16,9.104-2.394,13.161-2.35c11.361,0.132,22.483,2.329,33.047,6.525
		c0.674,0.267,1.259,0.658,1.75,1.132c1.726,0.197,3.346,0.492,4.752,0.804c18.031,4.005,33.35,14.213,48.161,24.088
		c10.922,7.278,22.215,14.805,34.231,19.481c13.579,5.286,28.678,7.338,45.528,6.153c-14.025-10.034-26.643-21.828-38.898-33.336
		c-16.013-15.04-32.571-30.592-46.99-47.897c-15.73-18.876-28.887-39.808-41.378-60.52c-26.696,10.941-50.004,29.473-69.827,46.099
		c-11.685,9.798-24.925,20.902-41.559,22.267c-0.15,0.013-0.297,0.018-0.445,0.018c-2.002,0-3.855-1.116-4.786-2.915
		c-0.997-1.934-0.737-4.276,0.666-5.941c28.493-33.88,62.645-61.806,101.507-83.002c0.095-0.052,0.197-0.078,0.294-0.124
		l-7.114-11.881c-8.157-1.213-17.366,0.31-25.601,4.294c-8.999,4.352-17.189,10.86-25.112,17.155l-78.84,62.659
		c-1.592,1.266-3.749,1.526-5.594,0.682c-1.844-0.842-3.057-2.65-3.142-4.676c-0.476-11.495,5.173-20.316,11.348-28.136
		c29.072-36.804,66.421-67.72,108.006-89.406c0.037-0.02,0.084-0.039,0.122-0.058c-35.728-20.777-73.249-38.848-111.757-53.755
		c-11.253-4.357-16.689-11.828-14.187-19.495c0.455-1.398,1.463-2.548,2.789-3.185c1.321-0.638,2.847-0.708,4.228-0.189
		c26.588,9.98,53.991,19.422,80.492,28.555c26.569,9.155,54.044,18.623,80.768,28.653c6.015,2.256,12.832,4.815,18.347,9.763
		c3.891,3.494,6.646,7.745,9.138,11.798c6.673,10.855,12.669,22.242,18.471,33.254c5.602,10.635,11.396,21.631,17.721,31.986
		c10.551,17.278,21.578,30.689,33.389,40.592c-11.521-30.673-17.092-61.449-20.438-84.343c-0.458-3.126-1.026-7.015-0.053-11.052
		c0.281-1.166,0.686-2.231,1.146-3.25c-0.906-9.434-5.808-18.641-10.613-27.566l-1.171-2.179
		c-5.775-10.783-11.034-21.902-15.853-33.2c-0.691-0.116-1.374-0.319-2.002-0.718c-8.099-5.145-17.026-11.098-26.477-17.4
		c-32.145-21.432-72.149-48.105-103.32-58.193c-158.879-51.419-268.106-72.214-459.064-51.311
		c-23.809,2.606-102.862,15.867-120.883,20.277c-0.005,0.001-0.011,0.004-0.016,0.004c-2.871,0.706-5.804-1.058-6.515-3.948
		c-0.71-2.888,1.055-5.806,3.944-6.517c54.594-13.453,103.941-25.095,155.048-31.321c93.103-11.342,196.347-4.703,315.638,20.293
		l8.662,1.812c28.176,5.888,56.686,11.851,84.703,19.157c-36.104-21.316-84.237-43.799-123.055-59.411
		c-84.212-33.871-168.896-55.909-238.45-62.057c-86.338-7.63-158.669-7.907-234.538-0.893c-2.936,0.253-5.568-1.889-5.857-4.837
		c-0.292-2.95,1.855-5.579,4.802-5.889c182.944-19.156,346.851-1.971,487.175,51.088c67.489,25.518,123.403,53.418,170.943,85.294
		c9.391,6.297,34.269,23.364,50.794,35.941c-14.309-22.079-25.066-46.658-31.431-72.078c-0.658-2.629,0.739-5.337,3.263-6.327
		c2.523-0.985,5.389,0.053,6.691,2.426c9.729,17.743,20.815,33.109,31.466,46.457c-3.618-12.067-7.325-24.05-10.996-35.889
		c-4.97-16.032-9.99-32.246-14.763-48.617c-15.618-6.45-30.865-14.094-45.325-22.808c-4.42-2.661-9.583-5.902-14.348-9.747
		c-2.471-1.994-4.849-4.161-7.07-6.44c-2.076-2.131-2.031-5.544,0.1-7.62c2.131-2.077,5.546-2.031,7.62,0.1
		c1.921,1.972,3.978,3.847,6.117,5.571c4.26,3.438,9.033,6.429,13.143,8.904c11.54,6.953,23.598,13.195,35.943,18.682
		c-8.214-29.297-15.372-59.079-19.719-89.243c-0.392-2.711,1.316-5.283,3.965-5.981c2.636-0.687,5.399,0.705,6.391,3.26
		l32.053,82.467c10.561,27.164,21.481,55.253,38.528,79.176c17.384,24.395,41.109,44.27,64.055,63.492
		c20.799,17.425,42.309,35.443,59.609,57.081l3.505,4.366c74.582,92.687,117.97,161.175,128.955,203.555
		c0.255,0.979,0.229,2.01-0.076,2.976c-0.388,1.23-0.785,2.419-1.181,3.609c0.42,1.643,0.062,3.447-1.102,4.818
		c0.003,0.458,0.218,1.639,1.224,3.576c6.47,12.456,15.247,24.078,23.733,35.318c9.914,13.127,20.165,26.701,27.261,42.112
		c0.617,1.342,1.239,2.802,1.685,4.373c0.255,0.305,0.487,0.635,0.675,1.005l10.703,21.002c1.827,3.58,6.633,13.036,4.33,21.562
		C1147.78,750.015,1154.587,783.817,1146.896,818.943z M758.173,284.322c7.044,14.765,15.653,28.785,25.617,41.625
		c1.173,1.512,1.403,3.449,0.801,5.126c0.664,0.426,1.329,0.852,1.99,1.284c-1.956-7.543-4.011-15.071-6.138-22.58
		c-1.194-0.21-2.329-0.797-3.176-1.793C771.182,300.817,764.691,292.954,758.173,284.322z M687.132,287.128
		c11.695,3.695,23.231,7.742,34.555,12.221c-6.136-4.24-11.432-7.841-14.745-10.062c-46.842-31.412-102.041-58.942-168.749-84.165
		c-32.603-12.327-66.521-22.698-101.66-31.099c31.632,9.331,64.037,20.608,96.358,33.609
		C580.33,226.71,648.956,258.894,687.132,287.128z M795.564,368.34c-0.99-2.628-2.025-5.243-2.959-7.885
		c-0.289-0.817-0.989-2.782-0.371-5.02c-0.557-2.451-1.159-4.9-1.743-7.35c-55.109-39.209-122.603-57.444-190.299-72.195
		c23.599,6.666,47.924,14.165,73.538,22.454c32.589,10.547,73.28,37.678,105.977,59.48
		C785.205,361.49,790.494,365.01,795.564,368.34z M724.616,434.753c8.189-0.428,17.216,1.811,22.849,10.307
		c3.005,4.532,6.002,9.074,9.001,13.618c33.618,50.94,68.381,103.616,114.781,143.98c6.281,5.464,13.232,11.186,20.829,15.27
		c-9.967-10.69-18.958-22.844-26.594-36.256c-3.062-5.378-5.86-10.868-8.446-16.412c-18.542-10.978-35.069-28.579-50.434-53.737
		c-6.502-10.646-12.377-21.796-18.058-32.58c-5.717-10.856-11.632-22.083-18.118-32.634c-2.076-3.38-4.339-6.891-7.154-9.42
		c-4.002-3.591-9.562-5.677-14.934-7.693c-26.59-9.98-53.994-19.422-80.495-28.555c-7.904-2.725-15.889-5.475-23.912-8.262
		C671.615,404.959,698.612,419.149,724.616,434.753z M744.252,502.144c-0.185-0.311-0.374-0.624-0.56-0.935l-2.489-4.156
		c-0.199,0.148-0.394,0.301-0.618,0.423c-31.508,17.185-59.824,38.932-84.407,64.803c5.865-3.665,11.448-8.346,16.937-12.948
		C693.195,532.489,716.784,513.726,744.252,502.144z M894.494,650.969c8.834-1.634,18.111-4.05,27.853-7.243
		c-4.445-2.943-8.787-6.14-13.008-9.589c-0.564,0.051-1.154,0.065-1.803-0.007c-17.429-1.889-31.521-13.037-43.361-23.341
		c-47.511-41.33-82.686-94.629-116.705-146.173c-2.994-4.539-5.988-9.073-8.988-13.6c-2.564-3.864-6.437-5.279-10.319-5.532
		c-1.679,1.275-4.012,1.488-5.937,0.379c-4.233,0.755-7.503,2.237-7.574,2.275c-40.249,20.987-76.395,50.909-104.533,86.529
		c-1.802,2.284-3.407,4.482-4.747,6.662l65.813-52.309c8.38-6.659,17.047-13.546,27.122-18.419
		c11.117-5.375,23.801-7.095,34.802-4.722c1.458,0.316,2.721,1.221,3.486,2.5l16.342,27.293
		c14.15,23.634,28.785,48.072,46.587,69.437c13.995,16.8,30.311,32.121,46.087,46.94c13.003,12.211,26.396,24.788,41.246,34.886
		c0.213-0.1,0.437-0.184,0.668-0.258c2.821-0.876,5.86,0.713,6.741,3.557L894.494,650.969z M909.412,681.398
		c3.347,2.781,7.346,5.244,12.011,7.341c5.644,2.538,11.763,4.359,17.889,5.971c-1.53-4.553-2.593-9.255-3.171-14.023
		L909.412,681.398z M722.371,614.202c1.207-2.489,2.657-4.609,4.399-6.309c-5.637-1.289-11.398-1.992-17.236-2.059
		c-2.779-0.029-5.931,0.087-8.259,1.234c-3.597,1.776-5.92,6.112-8.372,11.174l-13.319,27.482
		c7.328-10.29,15.161-20.234,23.475-29.795c5.107-5.875,12.087-3.805,16.703-2.444C720.673,613.755,721.536,613.994,722.371,614.202
		z M872.278,671.607l63.399-1.688c0.192-5.716,1.064-11.413,2.709-16.932c-1.327-0.658-2.651-1.325-3.965-2.028
		c-42.634,15.482-77.568,17.521-106.729,6.174c-13.108-5.102-24.896-12.961-36.299-20.56c-14.632-9.754-28.453-18.965-44.516-22.536
		c-4.96-1.097-8.38-1.026-10.761,0.229c-3.326,1.747-5.539,6.378-6.578,13.758c-1.371,9.756,0.1,21.381,1.4,31.634l0.334,2.663
		c0.971,7.77,1.658,17.184,2.381,27.151c1.647,22.657,3.607,49.568,9.817,69.986c-1.118-12.035-1.345-24.307-1.442-36.757
		c-0.211-26.575,0.003-53.489,0.637-80c0.161-6.865,0.742-14.016,5.812-19.389c1.8-1.908,4.707-2.239,6.894-0.792
		c24.899,16.495,51.457,30.79,78.942,42.49c5.131,2.181,10.601,4.407,16.082,5.541C857.391,672.002,864.953,671.797,872.278,671.607
		z M959.996,767.38c-0.725-1.633-1.372-3.315-1.905-5.046c-3.334-10.806-1.96-22.054-0.75-31.979c0.292-2.392,0.61-4.92,1.073-7.488
		c-1.379-0.608-2.586-1.454-3.439-2.321c-4.03-4.11-7.429-8.741-10.239-13.695c-0.155,0.013-0.297,0.076-0.454,0.076
		c-0.437,0-0.876-0.053-1.318-0.163c-8.612-2.163-17.516-4.399-25.962-8.196c-9.502-4.271-16.9-9.924-22.061-16.785l-13.749,0.366
		l22.526,29.349c4.318,5.625,8.785,11.44,12.532,17.855c1.226,2.097,2.368,4.249,3.507,6.402c2.013,3.802,3.913,7.396,6.267,10.609
		C932.745,755.537,943.92,762.43,959.996,767.38z M907.838,803.175c24.608,13.63,48.486,21.746,71.066,24.293
		c0.392-3.34,1.175-6.592,2.443-9.648c1.241-2.99,3.26-6.202,5.942-8.795c-1.036-0.983-2.009-2.011-2.904-3.078
		c-21.65,8.222-48.028,5.628-78.413-7.711c-8.391-3.684-16.655-7.88-24.646-11.94c-0.929-0.471-1.858-0.942-2.789-1.416
		C888.197,791.529,897.777,797.602,907.838,803.175z M927.861,870.99c12.656,6.773,25.743,13.777,39.728,16.531
		c0.26,0.051,0.501,0.14,0.745,0.226c10.811-6.088,24.112-7.767,36.137-4.657l3.754-5.967c-7.836-4.696-14.204-10.134-19.044-16.236
		c-12.036,7.237-27.793,9.523-44.551,6.379c-14.813-2.781-28.369-9.072-41.48-15.155l-23.009-10.675
		c5.994,4.631,12.016,8.87,18.121,12.753C907.786,860.25,917.992,865.709,927.861,870.99z M1122.206,736.468
		c-1.843,1.295-3.791,2.285-5.61,3.162c-2.568,1.239-4.783,2.307-5.594,3.802c-0.974,1.802-2.828,2.826-4.744,2.826
		c-0.866,0-1.742-0.208-2.557-0.65c-2.618-1.416-3.591-4.683-2.176-7.301c2.465-4.562,6.859-6.68,10.39-8.383
		c1.733-0.836,3.376-1.64,4.55-2.575c0.086-1.306,0.63-2.587,1.657-3.558c0.122-0.115,0.26-0.199,0.389-0.301
		c0.326-2.981-0.889-7.229-3.699-12.742l-6.221-12.203c-2.953,2.493-7.102,4.306-12.266,5.246l-1.055,0.189
		c-4.407,0.784-8.962,1.597-10.532,4.131c-1.021,1.644-2.784,2.55-4.586,2.55c-0.968,0-1.95-0.26-2.834-0.808
		c-2.529-1.568-3.31-4.891-1.742-7.42c4.105-6.62,11.701-7.975,17.802-9.064l1.018-0.182c4.76-0.866,8.243-2.852,8.47-4.831
		c0.131-1.134-0.605-2.852-1.305-4.376c-6.612-14.35-16.066-26.869-26.072-40.125c-7.613-10.078-15.446-20.459-21.889-31.712
		c-1.631,4.45-3.272,9.048-4.818,13.939c-1.826,5.781-3.894,12.335-8.535,17.676c-6.617,7.617-16.392,10.435-24.246,12.698
		c-0.497,0.142-1,0.213-1.494,0.213c-2.339,0-4.494-1.537-5.175-3.899c-0.824-2.86,0.826-5.846,3.686-6.67
		c8.254-2.379,14.9-4.581,19.094-9.409c3.173-3.652,4.81-8.838,6.394-13.853c2.071-6.552,4.27-12.503,6.399-18.26
		c1.921-5.196,3.902-10.554,5.76-16.297c-11.235-41.022-53.791-107.626-126.524-198.015l-3.528-4.391
		c-16.626-20.799-37.715-38.465-58.109-55.55c-23.465-19.657-47.729-39.983-65.913-65.5c-17.826-25.02-28.995-53.745-39.796-81.526
		l-9.459-24.339c7.496,30.024,16.687,59.665,25.691,88.714c9.706,31.309,19.69,63.578,27.521,96.085
		c0.018,0.09,0.049,0.176,0.063,0.266c0.865,3.595,1.724,7.192,2.532,10.792c0.216,0.956,0.161,1.91-0.11,2.782
		c6.815,19.13,15.042,37.706,24.528,55.42l1.16,2.158c3.881,7.208,7.811,14.593,10.101,22.525c1.125-0.836,2.259-1.638,3.365-2.407
		c3.315-2.305,6.446-4.482,8.341-7.145c1.721-2.421,5.086-2.997,7.515-1.268c2.426,1.725,2.994,5.089,1.268,7.515
		c-2.981,4.193-7.228,7.145-10.972,9.748c-3.081,2.141-5.844,4.086-7.561,6.324c-0.094,1.387-0.7,2.628-1.651,3.533
		c-0.364,1.963-0.03,4.408,0.289,6.594c3.82,26.137,10.59,62.791,26.077,97.196c1.4,1.092,2.137,2.775,2.056,4.489
		c2.26,4.751,4.678,9.453,7.301,14.06c21.494,37.757,53.994,65.137,89.159,75.124c2.863,0.813,4.526,3.792,3.713,6.654
		c-0.674,2.371-2.831,3.92-5.181,3.92c-0.487,0-0.981-0.068-1.473-0.208c-4.284-1.216-8.523-2.701-12.716-4.38
		c-1.258,4.72-1.898,9.612-1.898,14.531c0.618,0.854,1.001,1.893,1.03,3.01c0.027,1.021-0.247,1.973-0.719,2.799
		c1.224,12.645,6.388,24.973,14.951,34.192c4.007-8.493,11.899-15.607,22.299-20.046c8.967-3.834,18.392-5.333,27.503-6.783
		c2.942-0.458,5.702,1.537,6.17,4.476c0.466,2.939-1.537,5.702-4.476,6.17c-8.467,1.345-17.221,2.739-24.964,6.046
		c-8.07,3.447-14.074,8.759-16.913,14.961c-2.021,4.415-2.668,9.722-3.294,14.853c-1.134,9.285-2.305,18.889,0.35,27.501
		c1.708,5.533,5.094,10.79,8.37,15.876l10.904,16.924c2.763,4.286,5.891,9.143,10.077,11.595c0.222,0.13,0.455,0.229,0.681,0.346
		c0.389-0.017,0.778-0.038,1.177-0.025c1.439,0.033,2.727,0.637,3.671,1.582c7.192,1.127,15.723-1.882,23.438-4.992
		c2.765-1.108,5.902,0.224,7.015,2.984c1.11,2.763-0.224,5.902-2.984,7.015c-5.807,2.339-14.913,6.007-24.241,6.007
		c-3.079,0-6.181-0.406-9.198-1.384c-2.58,1.064-4.816,4.019-5.994,6.86c-3.302,7.959-2.25,18.302,2.742,26.996
		c4.465,7.775,11.822,14.563,21.865,20.178c0.874,0.487,2.918,1.631,3.897,4.06c1.413,3.52-0.489,6.552-1.116,7.546l-4.361,6.928
		c1.045,1.52,1.301,3.526,0.467,5.32c-1.258,2.7-4.462,3.865-7.159,2.613c-9.425-4.384-20.789-4.339-30.35-0.279
		c11.969,6.254,25.041,10.672,38.275,12.903c1.452,0.247,4.839,0.821,6.846,3.841c1.702,2.565,1.373,5.331,1.216,6.659
		c-0.389,3.276-0.724,6.665-1.066,10.106c-1.921,19.363-4.097,41.309-16.96,56.506c-1.021,1.208-2.521,1.905-4.102,1.908
		c-0.003,0-0.008,0-0.01,0c-1.576,0-3.076-0.692-4.099-1.892c-7.557-8.851-20.37-12.643-31.55-9.672l-0.247,8.472
		c-0.004,0.147-0.039,0.285-0.055,0.429c2.056,0.982,3.98,2.286,5.702,3.976c2.126,2.084,2.158,5.496,0.074,7.62
		c-2.086,2.126-5.502,2.152-7.62,0.074c-5.478-5.37-15.879-3.413-23.225,0.681c-3.131,1.744-6.123,3.815-9.293,6.01
		c-5.82,4.028-11.843,8.193-19.073,10.456c-2.644,0.826-5.27,1.339-7.809,1.834c-2.968,0.579-5.773,1.126-8.272,2.113
		c-3.344,1.321-6.673,4.21-6.559,7.172c0.084,2.137,1.81,4.397,3.807,7.012c1.037,1.36,2.138,2.839,3.136,4.452l8.57-4.026
		c2.694-1.26,5.902-0.105,7.17,2.586c1.266,2.694,0.108,5.904-2.586,7.17l-27.088,12.724c-4.726,2.218-8.767,4.32-10.375,7.591
		c-2.071,4.228,0.41,9.898,1.571,12.143c0.829,1.597,1.579,2.607,2.229,3.005c1.341-1.693,3.576-2.413,5.656-1.84
		c0.831-0.904,1.709-1.754,2.642-2.525c5.67-4.686,12.143-7.809,18.4-10.827c1.587-0.766,3.176-1.531,4.744-2.321
		c12.924-6.51,24.812-14.84,35.331-24.759c2.165-2.039,5.573-1.942,7.617,0.224c2.042,2.165,1.942,5.575-0.224,7.617
		c-11.28,10.635-24.022,19.565-37.878,26.543c-1.623,0.818-3.265,1.61-4.91,2.402c-5.938,2.865-11.551,5.573-16.216,9.43
		c-3.976,3.281-6.617,8.843-7.086,14.455c16.716,1.242,35.402-4.486,55.654-17.05c8.338-5.173,16.495-11.111,24.383-16.853
		c10.062-7.322,20.465-14.895,31.611-21.186c1.989-1.124,4.007-2.21,6.028-3.297c6.725-3.618,13.077-7.036,18.308-11.777
		c6.375-5.778,11.069-13.603,15.608-21.168l61.429-102.431c16.053-26.764,32.65-54.438,39.378-85.165
		C1143.1,785.886,1137.781,756.497,1122.206,736.468z M999.802,1008.236c-10.725,5.744-22.154,10.122-33.971,13.006
		c-2.892,0.708-4.662,3.623-3.957,6.515c0.603,2.46,2.805,4.11,5.231,4.11c0.424,0,0.855-0.05,1.284-0.153
		c12.698-3.102,24.977-7.804,36.502-13.979c2.623-1.405,3.61-4.67,2.205-7.294C1005.693,1007.82,1002.428,1006.828,999.802,1008.236
		z M1121.764,814.323c-6.894,15.432-23.441,25.856-40.399,25.248c-2.944-0.082-5.465,2.231-5.565,5.207
		c-0.1,2.973,2.231,5.465,5.207,5.565c0.55,0.018,1.097,0.026,1.647,0.026c20.581,0,40.538-12.824,48.95-31.647
		c1.213-2.718-0.005-5.904-2.721-7.12C1126.155,810.387,1122.977,811.605,1121.764,814.323z M1101.246,859.434
		c-6.394,4.46-14.224,6.744-21.983,6.431c-0.076-0.003-0.15-0.005-0.221-0.005c-2.876,0-5.265,2.271-5.381,5.17
		c-0.121,2.976,2.192,5.483,5.165,5.602c0.616,0.026,1.231,0.037,1.847,0.037c9.506,0,18.936-2.95,26.74-8.399
		c2.442-1.702,3.039-5.062,1.334-7.501C1107.048,858.329,1103.693,857.724,1101.246,859.434z M1004.493,582.403
		c2.786-1.039,4.205-4.144,3.165-6.933c-4.628-12.403-9.825-22.959-15.887-32.268c-10.569-16.222-24.485-29.649-37.941-42.634
		l-21.812-21.045c-2.137-2.064-5.549-2.004-7.62,0.137c-2.065,2.142-2.005,5.553,0.137,7.62l21.812,21.045
		c13.024,12.566,26.49,25.562,36.394,40.76c5.625,8.635,10.472,18.5,14.819,30.153c0.808,2.168,2.865,3.507,5.049,3.507
		C1003.236,582.745,1003.872,582.635,1004.493,582.403z M1012.013,615.187c2.971-0.197,5.215-2.768,5.015-5.736
		c-0.513-7.662-2.06-15.229-4.599-22.488c-0.981-2.807-4.047-4.284-6.865-3.307c-2.81,0.981-4.291,4.055-3.307,6.865
		c2.218,6.344,3.57,12.956,4.02,19.652c0.189,2.847,2.557,5.028,5.37,5.028C1011.769,615.201,1011.89,615.198,1012.013,615.187z
		 M963.895,573.407c-4.531-13.061-14.695-22.778-23.044-29.785c-2.326-1.95-4.699-3.852-7.075-5.754
		c-6.833-5.471-13.285-10.639-18.565-16.935c-1.91-2.28-5.304-2.581-7.591-0.666c-2.281,1.912-2.579,5.311-0.666,7.591
		c5.965,7.115,13.143,12.862,20.086,18.422c2.31,1.85,4.62,3.699,6.883,5.599c7.286,6.115,16.121,14.49,19.789,25.059
		c0.774,2.229,2.86,3.626,5.091,3.626c0.587,0,1.181-0.097,1.766-0.3C963.382,579.288,964.871,576.218,963.895,573.407z
		 M972.899,587.758c-2.002-2.197-5.41-2.352-7.615-0.353c-2.2,2.005-2.357,5.415-0.353,7.615c3.589,3.934,6.096,8.759,7.254,13.953
		c0.56,2.51,2.786,4.215,5.254,4.215c0.389,0,0.784-0.042,1.179-0.129c2.905-0.647,4.733-3.528,4.086-6.433
		C981.137,599.603,977.748,593.078,972.899,587.758z M950.802,452.906c0.9,0.575,1.902,0.85,2.897,0.85
		c1.776,0,3.518-0.879,4.544-2.488c1.605-2.506,0.871-5.839-1.637-7.442c-8.38-5.358-14.984-13.844-18.118-23.282
		c-0.937-2.825-3.978-4.348-6.815-3.415c-2.823,0.938-4.352,3.988-3.415,6.812C932.219,435.856,940.222,446.143,950.802,452.906z
		 M814.027,310.601c0.1-2.975-2.229-5.466-5.204-5.568c-2.986-0.038-5.465,2.23-5.568,5.204
		c-0.492,14.559,2.529,29.224,8.733,42.408c0.918,1.951,2.857,3.096,4.878,3.096c0.771,0,1.55-0.166,2.292-0.514
		c2.694-1.267,3.849-4.477,2.581-7.17C816.259,336.412,813.593,323.46,814.027,310.601z"/>
</g>
</svg>
